<mxfile host="app.diagrams.net" modified="2023-02-16T08:01:06.080Z" agent="5.0 (Windows NT 10.0; Win64; x64) AppleWebKit/537.36 (KHTML, like Gecko) Chrome/108.0.0.0 Safari/537.36 OPR/94.0.0.0" etag="nu2E5AFO1Ev7Y-J7kAGa" version="20.8.20" type="github">
  <diagram name="Pagina-1" id="jaCMkncrm8WqlkGq1HXF">
    <mxGraphModel dx="1161" dy="632" grid="1" gridSize="10" guides="1" tooltips="1" connect="1" arrows="1" fold="1" page="1" pageScale="1" pageWidth="827" pageHeight="1169" math="0" shadow="0">
      <root>
        <mxCell id="0" />
        <mxCell id="1" parent="0" />
        <mxCell id="F8cFQNr3xc7138fMni9N-5" value="" style="edgeStyle=orthogonalEdgeStyle;rounded=0;orthogonalLoop=1;jettySize=auto;html=1;" edge="1" parent="1" source="F8cFQNr3xc7138fMni9N-2" target="F8cFQNr3xc7138fMni9N-4">
          <mxGeometry relative="1" as="geometry" />
        </mxCell>
        <mxCell id="F8cFQNr3xc7138fMni9N-2" value="Inizializzazione" style="rhombus;whiteSpace=wrap;html=1;" vertex="1" parent="1">
          <mxGeometry x="340" y="10" width="126" height="120" as="geometry" />
        </mxCell>
        <mxCell id="F8cFQNr3xc7138fMni9N-7" value="" style="edgeStyle=orthogonalEdgeStyle;rounded=0;orthogonalLoop=1;jettySize=auto;html=1;" edge="1" parent="1" source="F8cFQNr3xc7138fMni9N-4" target="F8cFQNr3xc7138fMni9N-6">
          <mxGeometry relative="1" as="geometry" />
        </mxCell>
        <mxCell id="F8cFQNr3xc7138fMni9N-4" value="Entra nel parcheggio" style="whiteSpace=wrap;html=1;" vertex="1" parent="1">
          <mxGeometry x="343" y="170" width="120" height="60" as="geometry" />
        </mxCell>
        <mxCell id="F8cFQNr3xc7138fMni9N-18" value="" style="edgeStyle=orthogonalEdgeStyle;rounded=0;orthogonalLoop=1;jettySize=auto;html=1;" edge="1" parent="1" source="F8cFQNr3xc7138fMni9N-6" target="F8cFQNr3xc7138fMni9N-17">
          <mxGeometry relative="1" as="geometry">
            <Array as="points">
              <mxPoint x="270" y="300" />
            </Array>
          </mxGeometry>
        </mxCell>
        <mxCell id="F8cFQNr3xc7138fMni9N-34" style="edgeStyle=orthogonalEdgeStyle;rounded=0;orthogonalLoop=1;jettySize=auto;html=1;exitX=1;exitY=0.5;exitDx=0;exitDy=0;entryX=0.75;entryY=0;entryDx=0;entryDy=0;" edge="1" parent="1" source="F8cFQNr3xc7138fMni9N-6" target="F8cFQNr3xc7138fMni9N-30">
          <mxGeometry relative="1" as="geometry" />
        </mxCell>
        <mxCell id="F8cFQNr3xc7138fMni9N-6" value="IF posti liberi &amp;gt; 0" style="rhombus;whiteSpace=wrap;html=1;" vertex="1" parent="1">
          <mxGeometry x="363" y="260" width="80" height="80" as="geometry" />
        </mxCell>
        <mxCell id="F8cFQNr3xc7138fMni9N-10" value="true" style="text;html=1;strokeColor=none;fillColor=none;align=center;verticalAlign=middle;whiteSpace=wrap;rounded=0;" vertex="1" parent="1">
          <mxGeometry x="283" y="270" width="60" height="30" as="geometry" />
        </mxCell>
        <mxCell id="F8cFQNr3xc7138fMni9N-20" value="" style="edgeStyle=orthogonalEdgeStyle;rounded=0;orthogonalLoop=1;jettySize=auto;html=1;" edge="1" parent="1" source="F8cFQNr3xc7138fMni9N-17" target="F8cFQNr3xc7138fMni9N-19">
          <mxGeometry relative="1" as="geometry" />
        </mxCell>
        <mxCell id="F8cFQNr3xc7138fMni9N-35" style="edgeStyle=orthogonalEdgeStyle;rounded=0;orthogonalLoop=1;jettySize=auto;html=1;exitX=1;exitY=0.5;exitDx=0;exitDy=0;entryX=0.25;entryY=0;entryDx=0;entryDy=0;" edge="1" parent="1" source="F8cFQNr3xc7138fMni9N-17" target="F8cFQNr3xc7138fMni9N-30">
          <mxGeometry relative="1" as="geometry" />
        </mxCell>
        <mxCell id="F8cFQNr3xc7138fMni9N-17" value="IF soldi &amp;gt;= prezzoParcheggio" style="rhombus;whiteSpace=wrap;html=1;" vertex="1" parent="1">
          <mxGeometry x="205" y="320" width="130" height="110" as="geometry" />
        </mxCell>
        <mxCell id="F8cFQNr3xc7138fMni9N-25" value="" style="edgeStyle=orthogonalEdgeStyle;rounded=0;orthogonalLoop=1;jettySize=auto;html=1;" edge="1" parent="1" source="F8cFQNr3xc7138fMni9N-19" target="F8cFQNr3xc7138fMni9N-24">
          <mxGeometry relative="1" as="geometry" />
        </mxCell>
        <mxCell id="F8cFQNr3xc7138fMni9N-19" value="Paga il parcheggio e parcheggia" style="whiteSpace=wrap;html=1;" vertex="1" parent="1">
          <mxGeometry x="70" y="460" width="120" height="60" as="geometry" />
        </mxCell>
        <mxCell id="F8cFQNr3xc7138fMni9N-21" value="true" style="text;html=1;strokeColor=none;fillColor=none;align=center;verticalAlign=middle;whiteSpace=wrap;rounded=0;" vertex="1" parent="1">
          <mxGeometry x="145" y="340" width="60" height="30" as="geometry" />
        </mxCell>
        <mxCell id="F8cFQNr3xc7138fMni9N-27" value="" style="edgeStyle=orthogonalEdgeStyle;rounded=0;orthogonalLoop=1;jettySize=auto;html=1;" edge="1" parent="1" source="F8cFQNr3xc7138fMni9N-24" target="F8cFQNr3xc7138fMni9N-26">
          <mxGeometry relative="1" as="geometry" />
        </mxCell>
        <mxCell id="F8cFQNr3xc7138fMni9N-31" style="edgeStyle=orthogonalEdgeStyle;rounded=0;orthogonalLoop=1;jettySize=auto;html=1;entryX=0;entryY=0.5;entryDx=0;entryDy=0;" edge="1" parent="1" source="F8cFQNr3xc7138fMni9N-24" target="F8cFQNr3xc7138fMni9N-30">
          <mxGeometry relative="1" as="geometry" />
        </mxCell>
        <mxCell id="F8cFQNr3xc7138fMni9N-24" value="While faiCommissioni == true" style="rhombus;whiteSpace=wrap;html=1;" vertex="1" parent="1">
          <mxGeometry x="160" y="570" width="175" height="130" as="geometry" />
        </mxCell>
        <mxCell id="F8cFQNr3xc7138fMni9N-42" value="" style="edgeStyle=orthogonalEdgeStyle;rounded=0;orthogonalLoop=1;jettySize=auto;html=1;" edge="1" parent="1" source="F8cFQNr3xc7138fMni9N-26" target="F8cFQNr3xc7138fMni9N-41">
          <mxGeometry relative="1" as="geometry" />
        </mxCell>
        <mxCell id="F8cFQNr3xc7138fMni9N-26" value="Rimani nel parcheggio" style="whiteSpace=wrap;html=1;" vertex="1" parent="1">
          <mxGeometry x="187.5" y="760" width="120" height="60" as="geometry" />
        </mxCell>
        <mxCell id="F8cFQNr3xc7138fMni9N-29" value="true" style="text;html=1;strokeColor=none;fillColor=none;align=center;verticalAlign=middle;whiteSpace=wrap;rounded=0;" vertex="1" parent="1">
          <mxGeometry x="70" y="700" width="60" height="30" as="geometry" />
        </mxCell>
        <mxCell id="F8cFQNr3xc7138fMni9N-38" value="" style="edgeStyle=orthogonalEdgeStyle;rounded=0;orthogonalLoop=1;jettySize=auto;html=1;" edge="1" parent="1" source="F8cFQNr3xc7138fMni9N-30" target="F8cFQNr3xc7138fMni9N-37">
          <mxGeometry relative="1" as="geometry" />
        </mxCell>
        <mxCell id="F8cFQNr3xc7138fMni9N-30" value="Esci dal parcheggio" style="whiteSpace=wrap;html=1;" vertex="1" parent="1">
          <mxGeometry x="463" y="650" width="120" height="60" as="geometry" />
        </mxCell>
        <mxCell id="F8cFQNr3xc7138fMni9N-37" value="Fine" style="ellipse;whiteSpace=wrap;html=1;" vertex="1" parent="1">
          <mxGeometry x="630" y="740" width="80" height="80" as="geometry" />
        </mxCell>
        <mxCell id="F8cFQNr3xc7138fMni9N-44" style="edgeStyle=orthogonalEdgeStyle;rounded=0;orthogonalLoop=1;jettySize=auto;html=1;exitX=0.5;exitY=0;exitDx=0;exitDy=0;" edge="1" parent="1" source="F8cFQNr3xc7138fMni9N-39" target="F8cFQNr3xc7138fMni9N-24">
          <mxGeometry relative="1" as="geometry" />
        </mxCell>
        <mxCell id="F8cFQNr3xc7138fMni9N-39" value="return to check faiCommissioni&amp;nbsp;" style="ellipse;whiteSpace=wrap;html=1;" vertex="1" parent="1">
          <mxGeometry x="30" y="675" width="110" height="80" as="geometry" />
        </mxCell>
        <mxCell id="F8cFQNr3xc7138fMni9N-43" style="edgeStyle=orthogonalEdgeStyle;rounded=0;orthogonalLoop=1;jettySize=auto;html=1;exitX=0;exitY=0.5;exitDx=0;exitDy=0;entryX=0.435;entryY=0.985;entryDx=0;entryDy=0;entryPerimeter=0;" edge="1" parent="1" source="F8cFQNr3xc7138fMni9N-41" target="F8cFQNr3xc7138fMni9N-39">
          <mxGeometry relative="1" as="geometry" />
        </mxCell>
        <mxCell id="F8cFQNr3xc7138fMni9N-41" value="check commissioni" style="whiteSpace=wrap;html=1;" vertex="1" parent="1">
          <mxGeometry x="187.5" y="860" width="120" height="60" as="geometry" />
        </mxCell>
      </root>
    </mxGraphModel>
  </diagram>
</mxfile>
